<svg xmlns="http://www.w3.org/2000/svg" width="121" height="125" viewBox="0 0 121 125" fill="none">
  <path d="M47.9802 12.3565C33.7965 26.8618 24.8169 39.3524 16.4496 55.8723C5.83735 77.0259 1.75572 91.6319 0.939393 112.483L0.327148 124.873H4.91899H9.61286L10.3271 115.001C11.8578 94.6538 16.6537 77.0259 25.4292 59.7001C30.4292 49.9292 42.0618 32.2005 43.4904 32.2005C44.4088 32.2005 53.6945 44.4897 53.6945 45.6985C53.6945 46.0007 51.4496 50.9365 48.6945 56.6782C39.1027 76.22 34.4088 93.5458 33.5925 112.987L32.9802 124.873H37.572H42.1639L42.8782 115.505C44.3067 97.3736 48.7965 79.9471 56.4496 63.6286L60.1231 55.8723L63.4904 62.9235C70.9394 78.3354 75.8374 97.4743 76.8578 114.599L77.47 124.974L82.1639 124.672L86.8578 124.369L86.5516 113.893C86.1435 95.0567 81.0414 75.7164 71.5516 56.7789L66.1435 46.0007L70.021 40.259C75.5312 32.3013 76.3476 31.6969 78.8986 34.5173C82.8782 38.8488 89.4088 49.3248 94.6129 59.3979C104.001 78.0332 109.817 99.9926 109.817 117.016V124.873H115.123H120.327L119.715 114.296C118.694 98.6831 117.164 90.4231 112.878 77.5295C106.552 58.3906 95.2251 38.1437 82.368 23.1347C74.4088 13.7667 61.6537 0.973876 60.3271 0.973876C59.6129 0.973876 54.0006 6.11116 47.9802 12.3565ZM65.1231 17.796C67.7761 20.415 70.021 22.9333 70.021 23.3362C70.021 23.7391 67.7761 26.9625 65.1231 30.4881L60.1231 36.9349L55.021 30.1859L49.8169 23.4369L54.4088 18.2996C56.9598 15.3784 59.3067 13.0616 59.6129 13.0616C60.021 13.0616 62.47 15.177 65.1231 17.796Z" fill="black"/>
</svg>